<svg xmlns="http://www.w3.org/2000/svg" width="40" height="66" viewBox="0 0 40 66">
    <g fill="none" fill-rule="evenodd">
        <g fill="#BFDDE7">
            <g>
                <path d="M1440 0v66h-40V0h40zm-15.037 18.229c-.39-.391-1.02-.394-1.407-.008l-14.001 14.001-.064.07c-.321.39-.297.97.07 1.337l14.143 14.142.071.065c.393.325.972.306 1.336-.057l.064-.071c.321-.39.297-.97-.07-1.337l-13.436-13.435 13.3-13.3.065-.071c.32-.39.296-.969-.071-1.336z" transform="translate(-1400 -247) translate(0 247) matrix(-1 0 0 1 2840 0)"/>
            </g>
        </g>
    </g>
</svg>
