<?xml version="1.0" encoding="UTF-8"?>
<svg width="62px" height="50px" viewBox="0 0 62 50" version="1.1" xmlns="http://www.w3.org/2000/svg" xmlns:xlink="http://www.w3.org/1999/xlink">
    <title>7BE734F2-14B9-41A0-9B56-D31E62B1B0ED</title>
    <g id="页面-1" stroke="none" stroke-width="1" fill="none" fill-rule="evenodd">
        <g id="BluexPay_About-us_V1" transform="translate(-689.000000, -4712.000000)" fill="#FFFFFF" fill-rule="nonzero">
            <g id="our-clients-and-network-" transform="translate(0.000000, 4440.000000)">
                <g id="Testimonials_1" transform="translate(490.000000, 242.000000)">
                    <g id="“-2" transform="translate(199.000000, 30.000000)">
                        <path d="M62,50 L62,28.5714286 L50.8738739,28.5714286 L50.8738739,26.3513514 C50.8738739,21.1389961 51.5570571,16.9401544 52.9234234,13.7548263 C54.2897898,10.5694981 56.3393393,8.36550837 59.0720721,7.14285714 L59.0720721,7.14285714 L59.0720721,0 C51.3423423,1.60875161 45.5645646,5.24453024 41.7387387,10.9073359 C37.9129129,16.5701416 36,24.2599743 36,33.976834 L36,33.976834 L36,50 L62,50 Z M26,50 L26,28.5714286 L14.8738739,28.5714286 L14.8738739,26.3513514 C14.8738739,21.1389961 15.5570571,16.9401544 16.9234234,13.7548263 C18.2897898,10.5694981 20.3393393,8.36550837 23.0720721,7.14285714 L23.0720721,7.14285714 L23.0720721,0 C15.3423423,1.60875161 9.56456456,5.24453024 5.73873874,10.9073359 C1.91291291,16.5701416 0,24.2599743 0,33.976834 L0,33.976834 L0,50 L26,50 Z" id="“"></path>
                    </g>
                </g>
            </g>
        </g>
    </g>
</svg>