<svg width="20" height="20" viewBox="0 0 20 20" xmlns="http://www.w3.org/2000/svg">
    <g fill="none" fill-rule="evenodd">
        <path d="m12.86 1.5 3.64 3.719V17c0 .414-.168.79-.44 1.06-.27.272-.646.44-1.06.44H5c-.414 0-.79-.168-1.06-.44A1.495 1.495 0 0 1 3.5 17V3c0-.414.168-.79.44-1.06.27-.272.646-.44 1.06-.44h7.86z" stroke="#5B77AB"/>
        <path d="m12.5 1.5 4 3.719V5.5H14c-.414 0-.79-.168-1.06-.44A1.495 1.495 0 0 1 12.5 4V1.5z" stroke="#5B77AB"/>
        <path fill="#5B77AB" d="M6 8h5v1H6zM6 11h8v1H6zM6 14h8v1H6z"/>
    </g>
</svg>
