<svg xmlns="http://www.w3.org/2000/svg" width="72" height="72" viewBox="0 0 72 72">
    <g fill="none" fill-rule="evenodd">
        <g fill-rule="nonzero">
            <g>
                <g>
                    <g>
                        <path fill="#18335E" d="M54.906 15.747L35.788 0v8.995h-.05c-5.608.2-10.567 1.019-14.785 2.546-4.74 1.703-8.647 4.016-11.743 6.924-2.449 2.308-4.382 4.934-5.833 7.857-.382.77-.753 1.541-1.066 2.35C.802 32.563-.254 36.785.053 41.125c.074 1.07.668 4.27 1.358 4.27 0 0 .859-4.482 4.334-9.617 1.067-1.569 2.308-3.051 3.739-4.418l.161.13v-.28c.89-.836 1.834-1.638 2.904-2.362 2.895-1.962 6.439-3.52 10.627-4.668 3.43-.938 7.34-1.485 11.664-1.688h.953l-.006 8.998 19.119-15.742z" transform="translate(-250.000000, -3931.000000) translate(0.000000, 3811.000000) translate(250.000000, 120.000000) translate(4.000000, 0.000000)"/>
                        <path fill="#009BD2" d="M8.755 55.906l19.117 15.747v-8.994h.053c5.605-.2 10.563-1.02 14.781-2.548 4.74-1.703 8.648-4.016 11.744-6.924 2.45-2.308 4.382-4.934 5.832-7.856.383-.77.754-1.542 1.067-2.35 1.51-3.89 2.565-8.112 2.258-12.452-.074-1.074-.665-4.27-1.355-4.27 0 0-.862 4.484-4.337 9.619-1.067 1.567-2.308 3.05-3.738 4.416l-.16-.13v.28c-.892.837-1.836 1.636-2.907 2.362-2.894 1.962-6.438 3.521-10.627 4.669-3.43.94-7.34 1.486-11.663 1.687h-.953l.006-8.998L8.755 55.906z" transform="translate(-250.000000, -3931.000000) translate(0.000000, 3811.000000) translate(250.000000, 120.000000) translate(4.000000, 0.000000)"/>
                    </g>
                </g>
            </g>
        </g>
    </g>
</svg>
