<svg width="24" height="24" viewBox="0 0 24 24" xmlns="http://www.w3.org/2000/svg">
    <path d="M6.236 21.44V7.986H1.764V21.44h4.472zM4 6.15c1.559 0 2.53-1.034 2.53-2.325C6.5 2.505 5.56 1.5 4.03 1.5 2.5 1.5 1.5 2.504 1.5 3.825c0 1.29.97 2.324 2.471 2.324h.03zm4.71 15.29h4.472v-7.513c0-.401.029-.804.147-1.09.323-.804 1.059-1.636 2.295-1.636 1.617 0 2.265 1.233 2.265 3.042v7.197h4.471v-7.714c0-4.133-2.205-6.056-5.148-6.056-2.412 0-3.471 1.349-4.06 2.267h.03v-1.95H8.711c.059 1.261 0 13.454 0 13.454z" fill="#FFF" fill-rule="nonzero"/>
</svg>
