<svg width="24" height="24" viewBox="0 0 24 24" xmlns="http://www.w3.org/2000/svg">
    <g fill="none" fill-rule="evenodd">
        <rect fill="#0C65C2" width="24" height="24" rx="3"/>
        <path d="M8.29 20c7.547 0 11.675-6.155 11.675-11.492 0-.175-.004-.35-.012-.523A8.273 8.273 0 0 0 22 5.894a8.282 8.282 0 0 1-2.356.636 4.066 4.066 0 0 0 1.804-2.234 8.31 8.31 0 0 1-2.606.98A4.129 4.129 0 0 0 15.847 4c-2.266 0-4.103 1.809-4.103 4.039 0 .317.036.625.106.92a11.714 11.714 0 0 1-8.458-4.22 3.98 3.98 0 0 0-.556 2.03 4.02 4.02 0 0 0 1.826 3.363 4.123 4.123 0 0 1-1.858-.505v.051c0 1.956 1.414 3.59 3.291 3.96a4.17 4.17 0 0 1-1.853.069 4.1 4.1 0 0 0 3.833 2.805 8.315 8.315 0 0 1-5.096 1.73c-.327 0-.654-.02-.979-.057A11.75 11.75 0 0 0 8.29 20" fill="#FFF" fill-rule="nonzero"/>
    </g>
</svg>
