<svg xmlns="http://www.w3.org/2000/svg" width="72" height="72" viewBox="0 0 72 72">
    <g fill="none" fill-rule="evenodd">
        <g>
            <g>
                <g>
                    <g transform="translate(-890.000000, -4196.000000) translate(0.000000, 3811.000000) translate(890.000000, 385.000000) translate(0.000000, 7.000000)">
                        <rect width="72" height="58" fill="#18335E" rx="4"/>
                        <path fill="#009BD2" d="M0 15h72v39c0 2.21-1.79 4-4 4H4c-2.21 0-4-1.79-4-4V15z"/>
                        <path fill="#FFF" d="M0 14H72V16H0z"/>
                        <circle cx="8.5" cy="7.5" r="2.5" fill="#FFF"/>
                        <circle cx="17.5" cy="7.5" r="2.5" fill="#FFF"/>
                        <circle cx="26.5" cy="7.5" r="2.5" fill="#FFF"/>
                        <rect width="42" height="3" x="8" y="24" fill="#FFF" rx="1.5"/>
                        <rect width="38" height="3" x="8" y="34" fill="#FFF" rx="1.5"/>
                        <rect width="32" height="3" x="8" y="44" fill="#FFF" rx="1.5"/>
                    </g>
                </g>
            </g>
        </g>
    </g>
</svg>
