<svg width="149" height="30" viewBox="0 0 149 30" fill="none" xmlns="http://www.w3.org/2000/svg">
<path d="M14.9 0.199951L18.2453 10.4956H29.0707L20.3127 16.8587L23.658 27.1543L14.9 20.7912L6.142 27.1543L9.48726 16.8587L0.729258 10.4956H11.5547L14.9 0.199951Z" fill="#FFD600"/>
<path d="M44.7008 0.199951L48.046 10.4956H58.8715L50.1135 16.8587L53.4588 27.1543L44.7008 20.7912L35.9428 27.1543L39.288 16.8587L30.53 10.4956H41.3555L44.7008 0.199951Z" fill="#FFD600"/>
<path d="M74.4996 0.199951L77.8449 10.4956H88.6704L79.9123 16.8587L83.2576 27.1543L74.4996 20.7912L65.7416 27.1543L69.0869 16.8587L60.3289 10.4956H71.1544L74.4996 0.199951Z" fill="#FFD600"/>
<path d="M104.3 0.199951L107.646 10.4956H118.471L109.713 16.8587L113.058 27.1543L104.3 20.7912L95.5424 27.1543L98.8876 16.8587L90.1296 10.4956H100.955L104.3 0.199951Z" fill="#FFD600"/>
<path d="M134.099 0.199951L137.444 10.4956H148.27L139.512 16.8587L142.857 27.1543L134.099 20.7912L125.341 27.1543L128.686 16.8587L119.928 10.4956H130.754L134.099 0.199951Z" fill="#FFD600"/>
</svg>
