<?xml version="1.0" encoding="UTF-8"?>
<svg width="90px" height="90px" viewBox="0 0 90 90" version="1.1" xmlns="http://www.w3.org/2000/svg" xmlns:xlink="http://www.w3.org/1999/xlink">
    <title>6F615F65-C239-40B3-B05E-099D4737117C</title>
    <defs>
        <linearGradient x1="50%" y1="0%" x2="50%" y2="100%" id="linearGradient-1">
            <stop stop-color="#0BC467" offset="0%"></stop>
            <stop stop-color="#04FFF3" offset="100%"></stop>
        </linearGradient>
    </defs>
    <g id="页面-1" stroke="none" stroke-width="1" fill="none" fill-rule="evenodd">
        <g id="BluexPay_About-us_V1" transform="translate(-995.000000, -1547.000000)">
            <g id="our-mission" transform="translate(0.000000, 1368.000000)">
                <g id="icon/our-mission" transform="translate(995.000000, 179.000000)">
                    <rect id="矩形" x="0" y="0" width="90" height="90"></rect>
                    <path d="M46.6184991,6.00002819 L46.6184991,31.8996335 L49.0912521,31.8996335 C49.4190685,31.8996335 49.7337439,32.0295896 49.9654762,32.260889 C50.1973498,32.4920474 50.3276285,32.8059435 50.3276285,33.1329481 L50.3276285,33.1329481 L50.3276285,38.6828635 C55.5413222,39.9139228 60.0811553,43.096861 63.0076231,47.5731585 C65.9346562,52.0493151 67.0253522,57.4764628 66.0533483,62.7323561 L66.0533483,62.7323561 L66.4005228,62.7323561 C67.8251111,62.7340475 69.2054725,63.2256819 70.3094507,64.1242396 C71.4128637,65.0227974 72.1717869,66.2737307 72.4587676,67.6656142 L72.4587676,67.6656142 L75.6733464,67.6656142 C77.2187464,67.6660371 78.6471498,68.4884817 79.4204856,69.8242671 C80.1932562,71.1600524 80.1932562,72.8050826 79.4204856,74.1408679 C78.6472911,75.4765124 77.2187464,76.2990979 75.6727812,76.2990979 L75.6727812,76.2990979 L62.6908282,76.2990979 L62.6908282,73.8324688 L75.6727812,73.8324688 C76.6972075,73.8324688 77.5273459,73.0043862 77.5273459,71.982497 C77.5273459,70.9606078 76.6972075,70.1325252 75.6727812,70.1325252 L75.6727812,70.1325252 L71.3454635,70.1325252 C71.0175058,70.1325252 70.7029717,70.0025691 70.4710981,69.7712698 C70.2393658,69.5399704 70.1090871,69.2262152 70.1090871,68.8992107 C70.1090871,67.9181971 69.7181095,66.9765085 69.0227714,66.2828925 C68.3274332,65.5891354 67.3835481,65.1992671 66.3999576,65.1992671 L66.3999576,65.1992671 L65.4687895,65.1992671 C63.8333813,70.5091442 60.150675,74.9540098 55.2311683,77.5572197 C50.3119442,80.1598658 44.5573535,80.7077393 39.2331631,79.0807508 C33.9085489,77.4531984 29.449822,73.7835591 26.8363341,68.87835 L26.8363341,68.87835 L26.8363341,68.8993516 L25.5999576,68.8993516 C24.6165084,68.8993516 23.6726233,69.28922 22.9771439,69.9828361 C22.2816644,70.6764522 21.8909695,71.6179997 21.8909695,72.5991543 C21.8909695,72.9261588 21.7606907,73.240055 21.5288171,73.4713543 C21.2970849,73.7025127 20.9824094,73.8324688 20.654593,73.8324688 L20.654593,73.8324688 L16.3272753,73.8324688 C15.3028491,73.8324688 14.4727106,74.6605515 14.4727106,75.6824406 C14.4727106,76.7043298 15.3028491,77.5324125 16.3272753,77.5324125 L16.3272753,77.5324125 L31.7826878,77.5324125 L31.7826878,79.9990415 L16.3272753,79.9990415 C14.7813101,79.9990415 13.3529067,79.1765969 12.5795709,77.8408116 C11.8068003,76.5050262 11.8068003,74.859996 12.5795709,73.5242107 C13.3527654,72.1885663 14.7813101,71.3659807 16.3272753,71.3659807 L16.3272753,71.3659807 L19.5418541,71.3659807 C19.8288348,69.9740972 20.587758,68.7231638 21.691171,67.8246061 C22.7950079,66.9260484 24.1755106,66.434414 25.6000989,66.4327225 L25.6000989,66.4327225 L25.7408339,66.4327225 C23.5932126,60.8175472 23.9745818,54.5518864 26.7889985,49.2382036 C29.6028501,43.923957 34.5764748,40.0775661 40.4366167,38.6828635 L40.4366167,38.6828635 L40.4366167,33.1329481 C40.4366167,32.4518765 40.9902308,31.8996335 41.6729932,31.8996335 L41.6729932,31.8996335 L44.1457461,31.8996335 L44.1457461,23.2664317 L36.7274872,23.2664317 L36.7274872,29.4330044 C36.7274872,29.760009 36.5972085,30.0739052 36.3653349,30.3052045 C36.1336026,30.5363629 35.8189272,30.666319 35.4911108,30.666319 L35.4911108,30.666319 L18.18184,30.666319 C17.8540236,30.666319 17.5393481,30.5363629 17.3074746,30.3052045 C17.0757423,30.0739052 16.9454635,29.760009 16.9454635,29.4330044 L16.9454635,29.4330044 L16.9454635,17.099859 C16.9454635,16.4187875 17.4990776,15.8665445 18.18184,15.8665445 L18.18184,15.8665445 L26.8364754,15.8665445 L26.8364754,9.69997181 C26.8364754,9.01890028 27.3900895,8.46665727 28.0728519,8.46665727 L28.0728519,8.46665727 L44.1457461,8.46665727 L44.1457461,6.00002819 L46.6184991,6.00002819 Z M45.3828291,40.5326944 C40.4643115,40.5326944 35.7467228,42.4817542 32.2689017,45.9509623 C28.7910806,49.4203113 26.8371819,54.1260758 26.8371819,59.0324125 C26.8371819,63.9387491 28.7910806,68.6446546 32.2689017,72.1138626 C35.7468641,75.5830707 40.4643115,77.5321306 45.3828291,77.5321306 C50.2996511,77.5266335 55.01399,75.5760232 58.4906806,72.1078018 C61.9673713,68.6395803 63.9229656,63.9370577 63.9284763,59.0324125 C63.9284763,54.1260758 61.9745776,49.4201704 58.4967565,45.9509623 C55.0187942,42.4817542 50.3013467,40.5326944 45.3828291,40.5326944 Z M45.3809929,42.9990282 L45.7644609,43.0038285 C50.6176015,43.1202826 55.166576,45.4201943 58.1298,49.2731593 C61.1704383,53.2275181 62.1954298,58.3678321 60.9022506,63.1815645 C59.6096367,67.9958606 56.1455217,71.9364063 51.530093,73.8441677 C46.9152295,75.7520701 41.6722867,75.4101248 37.344969,72.9192523 L37.344969,72.9192523 L38.5813455,70.784561 C42.5024252,73.0435704 47.2939139,73.2053813 51.3591198,71.2161506 C55.4243257,69.226779 58.2287101,65.3479696 58.8375725,60.8722359 C59.4470002,56.3965021 57.7806473,51.9124524 54.3938235,48.9140181 C51.007565,45.9161476 46.346355,44.7978484 41.9632237,45.9320749 C37.5806577,47.0668653 34.052675,50.304915 32.5551758,54.5675319 C31.0576767,58.8301489 31.7873507,63.5564921 34.5013031,67.1721475 L34.5013031,67.1721475 L32.5231007,68.6521249 C30.1232586,65.459884 29.0027483,61.4901617 29.3803023,57.5176203 C29.7584216,53.5457837 31.6074756,49.8568342 34.5664425,47.1721551 C37.5254093,44.4870531 41.3813496,42.9991825 45.3814161,42.9991825 L45.3809929,42.9990282 Z M46.6177926,51.6325252 L46.6177926,53.0448466 C47.3326302,53.267266 47.9574595,53.7109774 48.4017072,54.3117073 C48.8466615,54.9124371 49.0878609,55.6391765 49.0905456,56.3857899 L49.0905456,56.3857899 L49.0905456,56.5657834 L46.6177926,56.5657834 L46.6177926,56.3857899 C46.6168035,55.8043702 46.1448609,55.3335964 45.5619977,55.3324688 L45.5619977,55.3324688 L45.2009758,55.3324688 C44.7113707,55.3330326 44.2863398,55.668917 44.1738649,56.1440603 C44.0618138,56.6197673 44.2918505,57.1098513 44.7301636,57.3277603 L44.7301636,57.3277603 L44.7295984,57.3277603 L47.1394728,58.5303477 C47.9827522,58.948829 48.6225594,59.6871263 48.9150508,60.5796232 C49.2081073,61.47212 49.129827,62.4449586 48.698155,63.2796658 C48.266483,64.1143731 47.5168856,64.7414607 46.6177926,65.0201193 L46.6177926,65.0201193 L46.6177926,66.4324406 L44.1450396,66.4324406 L44.1450396,65.0201193 C43.4302021,64.7975589 42.805514,64.3538476 42.361125,63.7531177 C41.9163121,63.1523878 41.6751127,62.4256484 41.6722867,61.679035 L41.6722867,61.679035 L41.6722867,61.4990415 L44.1450396,61.4990415 L44.1450396,61.679035 C44.14617,62.2604547 44.6181126,62.7312285 45.2009758,62.7323561 L45.2009758,62.7323561 L45.5618564,62.7323561 C46.0514615,62.7317923 46.4764924,62.3959079 46.5891087,61.9207646 C46.7011597,61.4450576 46.4709817,60.9551146 46.0326686,60.7370646 L46.0326686,60.7370646 L46.0332338,60.7370646 L43.6233594,59.5346181 C42.78008,59.1161369 42.1404141,58.3778396 41.8477815,57.4853427 C41.5547249,56.5928458 41.6331465,55.6198664 42.0646772,54.7853 C42.4963493,53.9504518 43.2459467,53.3233642 44.1450396,53.0448466 L44.1450396,53.0448466 L44.1450396,51.6325252 L46.6177926,51.6325252 Z M39.1995761,57.7990697 L39.1995761,60.2656988 L36.7268231,60.2656988 L36.7268231,57.7990697 L39.1995761,57.7990697 Z M54.0360939,57.7990697 L54.0360939,60.2656988 L51.5633409,60.2656988 L51.5633409,57.7990697 L54.0360939,57.7990697 Z M47.8555821,34.3661217 L42.9100762,34.3661217 L42.9100762,38.2240705 C44.5515602,38.0132089 46.214098,38.0132089 47.8555821,38.2240705 L47.8555821,38.2240705 L47.8555821,34.3661217 Z M26.8371819,18.3330326 L19.418923,18.3330326 L19.418923,28.199549 L32.5074164,28.199549 L27.2008885,22.906163 C26.9680258,22.6750046 26.8371819,22.3605446 26.8371819,22.0329763 L26.8371819,22.0329763 L26.8371819,18.3330326 Z M34.2554408,23.2662908 L31.0579593,23.2662908 L34.2554408,26.4558536 L34.2554408,23.2662908 Z M44.1464526,10.9331454 L29.3099349,10.9331454 L29.3099349,20.7996617 L44.1464526,20.7996617 L44.1464526,10.9331454 Z" id="形状结合" fill="url(#linearGradient-1)" fill-rule="nonzero"></path>
                </g>
            </g>
        </g>
    </g>
</svg>