<svg xmlns="http://www.w3.org/2000/svg" width="72" height="72" viewBox="0 0 72 72">
    <g fill="none" fill-rule="evenodd">
        <g>
            <g>
                <g>
                    <g>
                        <path fill="#18335E" fill-rule="nonzero" d="M66.43 30.236c-1.456 0-2.915.559-4.021 1.665l-7.6 7.599c.998 1.38 1.595 3.07 1.595 4.9 0 4.634-3.765 8.399-8.399 8.399H34.924c-1.743.156-1.743-2.547 0-2.39h13.081c3.345 0 5.998-2.663 5.998-6.008 0-1.178-.343-2.257-.918-3.174-1.059-1.671-2.92-2.791-5.08-2.824l-25.204.002c-5.099 0-7.93 2.637-10.301 5.002L29.163 60.07c.257-.041.53-.068.841-.068h20.402c4.123 0 7.57-2.037 10.01-5.572 2.75-3.98 7.897-11.43 10.17-14.654.828-1.173 1.358-2.517 1.41-3.914.05-1.397-.433-2.851-1.543-3.961-1.106-1.106-2.566-1.665-4.022-1.665zM8.4 43.201c-.306 0-.612.115-.846.349l-7.2 7.203c-.472.469-.472 1.232 0 1.701L19.56 71.651c.468.465 1.224.465 1.692 0l7.2-7.203c.466-.468.466-1.224 0-1.692L9.247 43.55c-.233-.232-.54-.349-.847-.35z" transform="translate(-248.000000, -4196.000000) translate(0.000000, 3811.000000) translate(248.000000, 385.000000) translate(-0.000000, 0.000000)"/>
                        <path fill="#009BD2" d="M36.007 0C26.742 0 19.2 7.532 19.2 16.796c0 9.265 7.541 16.806 16.806 16.806s16.796-7.54 16.796-16.806C52.803 7.532 45.272 0 36.007 0z" transform="translate(-248.000000, -4196.000000) translate(0.000000, 3811.000000) translate(248.000000, 385.000000) translate(-0.000000, 0.000000)"/>
                        <path fill="#FFF" d="M36.002 4.79c.6 0 1.2.4 1.2 1.201v2.585c2.06.539 3.596 2.41 3.596 4.632.01.435-.217.841-.592 1.062-.376.22-.84.22-1.216 0-.375-.22-.602-.627-.592-1.062 0-1.34-1.051-2.403-2.391-2.403s-2.4 1.063-2.4 2.403 1.06 2.4 2.4 2.4c2.637 0 4.79 2.163 4.79 4.8 0 2.223-1.535 4.093-3.595 4.632v2.562c0 1.6-2.4 1.6-2.4 0v-2.564c-2.057-.542-3.598-2.41-3.598-4.63 0-.663.538-1.2 1.202-1.2.663 0 1.2.537 1.2 1.2 0 1.34 1.061 2.403 2.4 2.403 1.34 0 2.392-1.063 2.392-2.403s-1.051-2.4-2.391-2.4c-2.637 0-4.803-2.163-4.803-4.8 0-2.219 1.541-4.088 3.598-4.63V5.992c0-.8.6-1.2 1.2-1.2z" transform="translate(-248.000000, -4196.000000) translate(0.000000, 3811.000000) translate(248.000000, 385.000000) translate(-0.000000, 0.000000)"/>
                    </g>
                </g>
            </g>
        </g>
    </g>
</svg>
