<svg width="24" height="24" viewBox="0 0 24 24" xmlns="http://www.w3.org/2000/svg">
    <path d="m12.532 21.078-4.924-.098c-1.594-.034-3.193.034-4.756-.32C.475 20.13.306 17.532.13 15.354a40.536 40.536 0 0 1 .31-9.217c.258-1.704 1.276-2.72 2.851-2.832 5.316-.401 10.667-.354 15.97-.166.56.017 1.125.11 1.677.218 2.726.52 2.793 3.464 2.97 5.94a36.693 36.693 0 0 1-.235 7.505c-.27 2.058-.788 3.784-2.97 3.95-2.734.219-5.406.394-8.148.338 0-.013-.015-.013-.023-.013zM9 16.043c2.06-1.183 4.082-2.346 6.13-3.521C13.066 11.338 11.05 10.175 9 9v7.043z" fill="#FFF" fill-rule="nonzero"/>
</svg>
