<svg width="43" height="27" viewBox="0 0 43 27" fill="none" xmlns="http://www.w3.org/2000/svg">
<path d="M43 0C42.3368 2.86531 41.6367 5.91429 40.8997 9.14694C40.1628 12.3796 39.4996 15.5388 38.91 18.6245C38.3205 21.6367 37.8415 24.4286 37.473 27H24.0977L23.3239 25.7878C23.9871 23.1429 24.8346 20.351 25.8663 17.4122C26.898 14.4735 28.0034 11.498 29.1825 8.48572C30.4353 5.47347 31.6512 2.6449 32.8303 0H43ZM19.5656 0C18.9023 2.86531 18.2022 5.91429 17.4653 9.14694C16.7284 12.3796 16.0651 15.5388 15.4756 18.6245C14.886 21.6367 14.407 24.4286 14.0386 27H0.773779L0 25.7878C0.663239 23.1429 1.51071 20.351 2.54242 17.4122C3.57412 14.4735 4.67952 11.498 5.85861 8.48572C7.1114 5.47347 8.32733 2.6449 9.50643 0H19.5656Z" fill="#009BD2"/>
</svg>
