<svg width="24" height="24" viewBox="0 0 24 24" xmlns="http://www.w3.org/2000/svg">
    <g fill="none" fill-rule="evenodd">
        <rect fill="#0C65C2" width="24" height="24" rx="3"/>
        <path d="M7.086 20V8.53H3.227V20h3.86zM5.158 6.964c1.345 0 2.182-.881 2.182-1.982C7.315 3.856 6.503 3 5.183 3S3 3.856 3 4.982c0 1.1.837 1.981 2.132 1.981h.025zM9.222 20h3.858v-6.405c0-.343.025-.686.127-.93.28-.686.914-1.395 1.98-1.395 1.396 0 1.955 1.052 1.955 2.594V20H21v-6.577C21 9.9 19.097 8.26 16.558 8.26c-2.081 0-2.995 1.15-3.503 1.933h.025V8.53H9.222c.05 1.076 0 11.47 0 11.47z" fill="#FFF" fill-rule="nonzero"/>
    </g>
</svg>
