<svg xmlns="http://www.w3.org/2000/svg" width="16" height="16" viewBox="0 0 16 16">
    <g fill="none" fill-rule="evenodd">
        <g fill="#FFF" fill-rule="nonzero">
            <g>
                <g>
                    <g>
                        <path d="M5.104 14.195c6.125 0 9.474-5.076 9.474-9.478 0-.144-.003-.287-.009-.43.652-.472 1.214-1.056 1.661-1.725-.597.265-1.239.444-1.912.524.687-.412 1.215-1.064 1.464-1.842-.654.388-1.369.661-2.114.808C13.06 1.405 12.195 1 11.237 1c-1.839 0-3.33 1.492-3.33 3.33 0 .262.03.516.086.76-2.767-.14-5.221-1.465-6.864-3.48-.295.508-.451 1.086-.45 1.674 0 1.156.587 2.176 1.481 2.773-.528-.016-1.046-.16-1.508-.417v.043c0 1.613 1.148 2.96 2.671 3.265-.286.078-.581.117-.878.117-.214 0-.423-.02-.626-.06.424 1.324 1.654 2.287 3.111 2.314-1.14.893-2.575 1.426-4.136 1.426-.265 0-.53-.015-.794-.046 1.474.945 3.224 1.496 5.104 1.496" transform="translate(-1147.000000, -4607.000000) translate(0.000000, 4493.000000) translate(250.000000, 50.000000) translate(897.000000, 64.000000)"/>
                    </g>
                </g>
            </g>
        </g>
    </g>
</svg>
