<svg xmlns="http://www.w3.org/2000/svg" width="16" height="16" viewBox="0 0 16 16">
    <g fill="none" fill-rule="evenodd">
        <g fill="#FFF" fill-rule="nonzero">
            <g>
                <g>
                    <g>
                        <path d="M8.354 14.052l-3.282-.065c-1.063-.023-2.128.022-3.17-.214C.317 13.42.204 11.689.087 10.236c-.162-2.041-.1-4.12.206-6.144.173-1.136.851-1.814 1.901-1.888 3.544-.267 7.111-.236 10.647-.11.373.01.75.073 1.118.144 1.817.348 1.862 2.31 1.98 3.961.117 1.669.067 3.346-.157 5.003-.18 1.372-.525 2.523-1.98 2.634-1.823.145-3.604.262-5.432.225 0-.009-.01-.009-.016-.009zM6 10.695c1.374-.788 2.721-1.564 4.087-2.347C8.71 7.559 7.366 6.783 6 6v4.695z" transform="translate(-1120.000000, -4607.000000) translate(0.000000, 4493.000000) translate(250.000000, 50.000000) translate(870.000000, 64.000000)"/>
                    </g>
                </g>
            </g>
        </g>
    </g>
</svg>
