<svg xmlns="http://www.w3.org/2000/svg" width="16" height="16" viewBox="0 0 16 16">
    <g fill="none" fill-rule="evenodd">
        <g fill="#FFF" fill-rule="nonzero">
            <g>
                <g>
                    <g>
                        <path d="M4.157 14.293v-8.97H1.176v8.97h2.981zM2.667 4.1c1.04 0 1.687-.688 1.687-1.55C4.334 1.67 3.706 1 2.687 1 1.667 1 1 1.67 1 2.55c0 .86.647 1.55 1.647 1.55h.02zm3.14 10.194h2.981V9.285c0-.268.02-.536.099-.727.215-.536.706-1.09 1.53-1.09 1.078 0 1.51.822 1.51 2.027v4.798h2.98V9.151c0-2.755-1.47-4.037-3.431-4.037-1.609 0-2.315.898-2.707 1.51h.02v-1.3H5.807c.04.842 0 8.97 0 8.97z" transform="translate(-1174.000000, -4607.000000) translate(0.000000, 4493.000000) translate(250.000000, 50.000000) translate(924.000000, 64.000000)"/>
                    </g>
                </g>
            </g>
        </g>
    </g>
</svg>
