<svg width="15" height="13" viewBox="0 0 15 13" fill="none" xmlns="http://www.w3.org/2000/svg">
<path d="M8.71314 -5.94882e-08C8.96014 0.173855 9.2366 0.317785 9.44893 0.527266C10.7966 1.85778 12.1299 3.20255 13.4676 4.54304C14.4038 5.48119 14.401 6.6483 13.4619 7.58978C12.0686 8.98632 10.6768 10.3843 9.28125 11.7785C8.77251 12.2867 8.01819 12.2216 7.65718 11.6474C7.3926 11.2265 7.45577 10.7382 7.83674 10.3553C8.84994 9.33783 9.86695 8.32368 10.8825 7.3081C10.9429 7.24777 11.0008 7.18459 11.1044 7.07676H10.779C7.6301 7.07676 4.48171 7.06726 1.33284 7.08484C0.681118 7.08864 0.217505 6.89103 0.000898784 6.24929V5.8707C0.218455 5.23133 0.680169 5.03135 1.33189 5.03515C4.47886 5.05273 7.62583 5.04323 10.7723 5.04323H11.0459C11.0616 5.01663 11.0778 4.98955 11.0934 4.96295C11.0236 4.91355 10.9448 4.8727 10.8844 4.81285C9.87122 3.80772 8.85754 2.80259 7.85004 1.79175C7.3945 1.33479 7.3736 0.703497 7.81013 0.303059C7.95501 0.170055 8.15737 0.0997532 8.3336 0.000950172H8.71219L8.71314 -5.94882e-08Z" fill="currentColor"/>
</svg>
