<svg width="24" height="24" viewBox="0 0 24 24" xmlns="http://www.w3.org/2000/svg">
    <path d="M7.656 21.293c9.187 0 14.212-7.614 14.212-14.217 0-.216-.005-.431-.015-.646a10.159 10.159 0 0 0 2.492-2.587 9.954 9.954 0 0 1-2.868.786 5.014 5.014 0 0 0 2.196-2.763c-.98.582-2.053.992-3.172 1.213a4.996 4.996 0 0 0-8.511 4.557A14.181 14.181 0 0 1 1.694 2.414a4.985 4.985 0 0 0-.676 2.511c0 1.734.882 3.264 2.223 4.16A4.957 4.957 0 0 1 .978 8.46v.064c0 2.42 1.721 4.44 4.007 4.898a5 5 0 0 1-2.256.086 5 5 0 0 0 4.666 3.47 10.018 10.018 0 0 1-6.204 2.14c-.398 0-.796-.024-1.191-.07a14.135 14.135 0 0 0 7.657 2.244" fill="#FFF" fill-rule="nonzero"/>
</svg>
