<svg width="47" height="41" viewBox="0 0 47 41" fill="none" xmlns="http://www.w3.org/2000/svg">
<path d="M21.9258 40.041H0.685547V23.6836C0.685547 17.6615 1.9388 12.9089 4.44531 9.42578C6.95182 5.94271 11.2487 2.86654 17.3359 0.197266L21.9258 8.88867C18.1823 10.6465 15.5944 12.4043 14.1621 14.1621C12.7298 15.8874 11.9323 17.9382 11.7695 20.3145H21.9258V40.041ZM46.6816 40.041H25.4414V23.6836C25.4414 17.6615 26.6947 12.9089 29.2012 9.42578C31.7077 5.94271 36.0046 2.86654 42.0918 0.197266L46.6816 8.88867C42.9382 10.6465 40.3503 12.4043 38.918 14.1621C37.4857 15.8874 36.6882 17.9382 36.5254 20.3145H46.6816V40.041Z" fill="#009BD2"/>
</svg>
