<svg xmlns="http://www.w3.org/2000/svg" width="70" height="70" viewBox="0 0 70 70">
    <g fill="none" fill-rule="evenodd">
        <g fill="#FFF" fill-rule="nonzero">
            <g>
                <path d="M683 85c0-19.33 15.67-35 35-35s35 15.67 35 35-15.67 35-35 35-35-15.67-35-35zm4.375 0c0 16.914 13.711 30.625 30.625 30.625S748.625 101.914 748.625 85 734.914 54.375 718 54.375c-16.892.052-30.573 13.733-30.625 30.625zm32.017 13.307c-.854-.855-.854-2.24 0-3.094l8.05-8.048h-24.776c-1.208 0-2.188-.98-2.188-2.188 0-1.208.98-2.187 2.188-2.187h24.64l-7.914-7.914c-.552-.552-.768-1.358-.565-2.113.202-.755.792-1.344 1.547-1.546.755-.203 1.56.013 2.113.566l12.92 13.263-12.923 13.26c-.41.411-.966.642-1.547.642-.58 0-1.137-.231-1.547-.641h.002z" transform="translate(-683.000000, -3791.000000) translate(0.000000, 3741.000000)"/>
            </g>
        </g>
    </g>
</svg>
