<svg width="70" height="70" viewBox="0 0 70 70" xmlns="http://www.w3.org/2000/svg">
    <path d="M0 35C0 15.67 15.67 0 35 0s35 15.67 35 35-15.67 35-35 35S0 54.33 0 35zm4.375 0c0 16.914 13.711 30.625 30.625 30.625S65.625 51.914 65.625 35 51.914 4.375 35 4.375C18.108 4.427 4.427 18.108 4.375 35zm32.017 13.307a2.187 2.187 0 0 1 0-3.094l8.05-8.048H19.666a2.188 2.188 0 0 1 0-4.375h24.64l-7.914-7.914a2.188 2.188 0 1 1 3.095-3.093l12.92 13.263-12.923 13.26a2.188 2.188 0 0 1-3.094 0h.002z" fill="#FFF" fill-rule="nonzero"/>
</svg>
