<svg width="83" height="20" viewBox="0 0 83 20" fill="none" xmlns="http://www.w3.org/2000/svg">
<path d="M19.0565 2.54295C18.8646 2.35106 18.6417 2.19793 18.3912 2.08137C18.0311 1.91339 17.6264 2.20865 17.6677 2.60398C17.7911 3.79298 17.4004 5.31876 16.5779 6.97072C16.4575 7.21291 16.127 7.2569 15.9522 7.05072C15.5049 6.52233 15.0238 5.99779 14.5089 5.48316C10.0275 1.00151 4.79756 -1.03451 2.8278 0.935526L2.82037 0.942949C2.51165 1.25305 2.71481 1.77676 3.15137 1.80425C5.65281 1.96206 9.2102 3.909 12.3915 7.0903C13.1926 7.8914 13.9145 8.71669 14.5501 9.54254C14.6912 9.72535 14.6912 9.98157 14.5501 10.1647C13.9145 10.9908 13.1926 11.8155 12.3915 12.6169C9.2102 15.7985 5.65281 17.7451 3.15137 17.9029C2.71481 17.9304 2.51165 18.4539 2.8201 18.764L2.8278 18.7717C4.79756 20.7417 10.0275 18.7057 14.5089 14.224C15.0238 13.7097 15.5052 13.1849 15.9522 12.6568C16.127 12.4503 16.4575 12.4943 16.5779 12.7365C17.4004 14.3884 17.7911 15.9142 17.6677 17.1035C17.6264 17.4986 18.0311 17.7938 18.3912 17.6261C18.6417 17.5093 18.8646 17.3561 19.0565 17.1645C20.3624 15.8587 19.9068 13.1203 18.1468 10.1171C18.0514 9.95436 18.0514 9.75285 18.1468 9.5901C19.9068 6.58694 20.3624 3.84879 19.0565 2.54295Z" fill="white"/>
<path d="M7.42205 12.679C6.6215 11.8788 5.9004 11.0546 5.26508 10.2293C5.12322 10.0448 5.12322 9.78667 5.26508 9.60248C5.9004 8.77718 6.6215 7.95299 7.42205 7.15244C10.599 3.97553 14.1508 2.02969 16.6517 1.86722C17.0922 1.83863 17.2972 1.31079 16.986 0.99794C15.016 -0.972094 9.78604 1.06392 5.30466 5.54529C4.79195 6.05828 4.31195 6.5809 3.86604 7.10708C3.68899 7.31629 3.35442 7.27176 3.23236 7.02626C2.41422 5.3809 2.02439 3.8609 2.14508 2.67464C2.18576 2.27547 1.77779 1.97636 1.41463 2.14708C1.16748 2.26337 0.947001 2.4154 0.757035 2.60509C-0.548257 3.91038 -0.0935487 6.64742 1.6648 9.64921C1.76157 9.81389 1.76157 10.0179 1.6648 10.1825C-0.0935487 13.1843 -0.548257 15.9214 0.757035 17.2267C0.947001 17.4164 1.16748 17.5684 1.41463 17.6847C1.77779 17.8554 2.18576 17.5563 2.14508 17.1571C2.02439 15.9709 2.41422 14.4511 3.23236 12.8052C3.35442 12.56 3.68899 12.5157 3.86604 12.7247C4.31195 13.2511 4.79195 13.7735 5.30466 14.2865C9.78604 18.7678 15.016 20.8039 16.986 18.8341V18.8338C17.2975 18.521 17.0922 17.9931 16.6517 17.9645C14.1508 17.8021 10.5992 15.8562 7.42205 12.679Z" fill="white"/>
<path fill-rule="evenodd" clip-rule="evenodd" d="M24.7988 3.46772V16.2325C24.7988 16.4739 24.9946 16.6699 25.2362 16.6699H28.9627C30.7232 16.6699 32.0689 16.3197 33.002 15.6217C33.9339 14.9215 34.4005 13.8768 34.4005 12.4844C34.4005 12.0478 34.332 11.6497 34.1965 11.2959C34.061 10.941 33.8765 10.6325 33.6436 10.3711C33.4111 10.1107 33.1386 9.89879 32.8293 9.73549C32.5198 9.57246 32.1948 9.46222 31.8542 9.40697C32.1948 9.2882 32.4898 9.12518 32.7405 8.91652C32.9913 8.70759 33.1999 8.46676 33.3668 8.19569C33.5345 7.92463 33.6582 7.62717 33.7371 7.30332C33.8177 6.97948 33.8572 6.64848 33.8572 6.30786C33.8572 5.2082 33.4699 4.38676 32.6938 3.84463C31.918 3.3025 30.7546 3.03033 29.2027 3.03033H25.2362C24.9946 3.03033 24.7988 3.22607 24.7988 3.46772ZM29.1403 14.5723C29.5504 14.5723 29.9114 14.5209 30.221 14.4151C30.5302 14.312 30.7895 14.1668 30.9979 13.9835C31.2068 13.7987 31.3649 13.5804 31.4729 13.3311C31.5807 13.0793 31.6348 12.8129 31.6348 12.5275C31.6348 11.9351 31.4141 11.4721 30.9717 11.1387C30.5302 10.8052 29.8539 10.6375 28.9423 10.6375H27.7836C27.5419 10.6375 27.3462 10.8332 27.3462 11.0749V14.1349C27.3462 14.3766 27.5419 14.5723 27.7836 14.5723H29.1403ZM31.1862 6.75652C31.1862 6.49865 31.1444 6.2647 31.0603 6.05604C30.9775 5.84738 30.8434 5.67006 30.6586 5.52491C30.475 5.37865 30.2377 5.26566 29.9499 5.18539C29.661 5.10621 29.3107 5.06552 28.9003 5.06552H27.7836C27.5419 5.06552 27.3462 5.26126 27.3462 5.50291V8.23776C27.3462 8.47941 27.5419 8.67542 27.7836 8.67542H28.9003C29.3179 8.67542 29.6717 8.62511 29.9592 8.52422C30.2485 8.4236 30.4849 8.28422 30.6693 8.1069C30.8541 7.9293 30.986 7.72669 31.0663 7.49769C31.1455 7.26731 31.1862 7.02044 31.1862 6.75652Z" fill="white"/>
<path d="M36.8555 16.2324V3.4676C36.8555 3.22595 37.0512 3.03021 37.2929 3.03021H39.0276C39.2692 3.03021 39.4652 3.22595 39.4652 3.4676V14.0306C39.4652 14.2723 39.661 14.468 39.9023 14.468H44.7878C45.0295 14.468 45.2252 14.6638 45.2252 14.9054V16.2324C45.2252 16.4741 45.0295 16.6698 44.7878 16.6698H37.2929C37.0512 16.6698 36.8555 16.4741 36.8555 16.2324Z" fill="white"/>
<path d="M57.3472 11.6496C57.3472 12.5202 57.2309 13.2828 56.997 13.9402C56.7644 14.5986 56.4298 15.1468 55.9955 15.5844C55.5603 16.0221 55.0303 16.3531 54.404 16.5763C53.7783 16.7993 53.0753 16.9098 52.2957 16.9098C51.4193 16.9098 50.6685 16.7993 50.0422 16.5763C49.4162 16.3531 48.9079 16.0331 48.5181 15.6158C48.1283 15.1982 47.8465 14.691 47.6736 14.0914C47.4987 13.494 47.4121 12.8226 47.4121 12.079V3.46759C47.4121 3.22594 47.6081 3.0302 47.8498 3.0302H49.5424C49.7841 3.0302 49.9801 3.22594 49.9801 3.46759V11.9217C49.9801 12.3811 50.0197 12.7877 50.0999 13.1426C50.1791 13.4978 50.3182 13.7986 50.5173 14.0457C50.7149 14.2929 50.9634 14.4776 51.2631 14.6035C51.5619 14.7294 51.9372 14.7919 52.3905 14.7919C52.8139 14.7919 53.1724 14.7377 53.4652 14.6299C53.7577 14.5219 53.9999 14.3479 54.1956 14.1081C54.3897 13.8681 54.536 13.56 54.6333 13.1847C54.7314 12.8081 54.7795 12.3523 54.7795 11.8176V3.46759C54.7795 3.22594 54.9755 3.0302 55.2169 3.0302H56.9098C57.1515 3.0302 57.3472 3.22594 57.3472 3.46759V11.6496Z" fill="white"/>
<path d="M60.5957 16.1842L60.7442 3.42046C60.7469 3.17881 60.9451 2.98527 61.1865 2.98802L68.524 3.07352C68.7656 3.07599 68.9592 3.27421 68.9564 3.51586L68.9413 4.81153C68.9385 5.05318 68.7403 5.24672 68.499 5.24397L63.7696 5.18898C63.5282 5.18623 63.33 5.37977 63.3273 5.62115L63.2979 8.13771C63.2951 8.37936 63.4887 8.57757 63.7303 8.58032L68.199 8.63228C68.4407 8.63503 68.6342 8.83324 68.6315 9.07489L68.6169 10.3192C68.6142 10.5605 68.4159 10.7541 68.1746 10.7513L63.7056 10.6994C63.4642 10.6966 63.266 10.8902 63.2632 11.1315L63.2294 14.044C63.2264 14.2856 63.4199 14.4836 63.6616 14.4866L68.3906 14.5413C68.6323 14.5443 68.8258 14.7422 68.8231 14.9839L68.808 16.2798C68.8052 16.5212 68.607 16.7148 68.3656 16.712L61.0282 16.6268C60.7865 16.624 60.593 16.4258 60.5957 16.1842Z" fill="white"/>
<path d="M79.9163 16.7043H81.5924C81.9325 16.7043 82.1425 16.3329 81.9671 16.0415L74.2734 3.24263C74.1942 3.11094 74.0518 3.03039 73.8984 3.03039H72.1978C71.8574 3.03039 71.6474 3.40235 71.8234 3.69376L79.5416 16.4927C79.6207 16.6241 79.7629 16.7043 79.9163 16.7043Z" fill="white"/>
<path d="M73.8719 16.7043H72.1958C71.8557 16.7043 71.6457 16.3329 71.8211 16.0415L79.5148 3.24263C79.594 3.11094 79.7364 3.03039 79.8898 3.03039H81.5904C81.9308 3.03039 82.1408 3.40235 81.9649 3.69376L74.2467 16.4927C74.1675 16.6241 74.0253 16.7043 73.8719 16.7043Z" fill="white"/>
</svg>
