<svg width="133" height="32" xmlns="http://www.w3.org/2000/svg" xmlns:xlink="http://www.w3.org/1999/xlink"><defs><path id="a" d="M.2 0h15.6v23H.2z"/><path id="c" d="M.2.1h26.7v31.7H.2z"/><path id="e" d="M0 .1h27v31.7H0z"/></defs><g fill="none" fill-rule="evenodd"><path d="M47.2 23.5c.7 0 1.3-.1 1.8-.3a3.7 3.7 0 0 0 1.3-.7c.4-.3.6-.7.8-1.1.2-.5.3-.9.3-1.4 0-1-.4-1.8-1.1-2.3-.7-.6-1.9-.9-3.4-.9h-2a.7.7 0 0 0-.7.8v5.1c0 .4.4.8.8.8h2.2zm3.4-13.2c0-.5 0-.8-.2-1.2a2.1 2.1 0 0 0-.6-.9l-1.2-.6-1.8-.2H45a.7.7 0 0 0-.8.8v4.6c0 .4.4.7.8.7h1.8c.7 0 1.3 0 1.8-.2s.9-.4 1.2-.7c.3-.3.5-.7.6-1 .2-.5.2-.9.2-1.3zM40 26.3V4.7c0-.4.3-.7.7-.7h6.6c2.6 0 4.6.5 5.9 1.4 1.2.9 1.9 2.3 1.9 4.1a7 7 0 0 1-.2 1.7 5.2 5.2 0 0 1-.6 1.5 5 5 0 0 1-1 1.2l-1.5.9a5.2 5.2 0 0 1 1.6.5 4.8 4.8 0 0 1 2.3 2.6c.2.6.3 1.3.3 2 0 2.4-.8 4.2-2.3 5.3a11 11 0 0 1-6.8 1.8h-6.2a.7.7 0 0 1-.7-.7zm19 0V4.7c0-.4.3-.7.7-.7h3c.3 0 .7.3.7.7v17.8c0 .5.3.8.7.8h8.2c.4 0 .7.3.7.7v2.3a.7.7 0 0 1-.7.7H59.7a.7.7 0 0 1-.7-.7m33-8c0 1.4-.2 2.7-.6 3.8-.3 1-.9 2-1.6 2.7a6.7 6.7 0 0 1-2.5 1.6c-1 .4-2.2.6-3.4.6-1.4 0-2.7-.2-3.7-.6a6 6 0 0 1-2.4-1.5c-.6-.7-1.1-1.6-1.4-2.6-.3-1-.4-2-.4-3.3V4.7c0-.4.3-.7.7-.7h2.7c.4 0 .7.3.7.7v14l.2 2 .7 1.6c.3.4.7.7 1.2.9.5.2 1 .3 1.8.3a5 5 0 0 0 1.7-.3 2.7 2.7 0 0 0 1.2-.8c.3-.4.6-1 .7-1.6.2-.6.3-1.4.3-2.2V4.7c0-.4.3-.7.7-.7h2.7c.4 0 .7.3.7.7v13.6zm6 7.8.2-21.4A.7.7 0 0 1 99 4l12.3.1a.7.7 0 0 1 .7.8V7a.7.7 0 0 1-.8.7l-7.9-.1a.7.7 0 0 0-.7.7v4.2a.7.7 0 0 0 .7.8h7.4a.7.7 0 0 1 .8.8v2a.7.7 0 0 1-.8.8h-7.5a.7.7 0 0 0-.7.6v5a.7.7 0 0 0 .6.7h8a.7.7 0 0 1 .7.8v2.2a.7.7 0 0 1-.8.7l-12.3-.1a.7.7 0 0 1-.7-.8" fill="#009ED5"/><g transform="translate(117 4)"><mask id="b" fill="#fff"><use xlink:href="#a"/></mask><path d="M12.6 23h2.6c.5 0 .8-.7.5-1.1L4 .4a.7.7 0 0 0-.6-.4H.8C.3 0 0 .6.3 1.1L12 22.6c.2.2.4.4.6.4" fill="#97E4FF" mask="url(#b)"/></g><path d="M120.3 27h-2.6c-.5 0-.9-.6-.6-1.1l12-21.5a.7.7 0 0 1 .6-.4h2.6c.5 0 .9.6.6 1.1l-12 21.5a.7.7 0 0 1-.6.4" fill="#97E4FF"/><g transform="translate(5)"><mask id="d" fill="#fff"><use xlink:href="#c"/></mask><path d="M1.2 29c3.4-.2 9-3.4 13.8-8.5a41.3 41.3 0 0 0 3.5-4 .9.9 0 0 0 0-1 41.3 41.3 0 0 0-3.5-4c-4-4.3-8.7-7-12.2-8.3 0 0-2.3-.6-2.4-1.5C.2 1 1 .4 1.4.3c3.9-1.2 10.9 2.2 17 8.5l2.3 2.6c.3.3.8.3 1-.2 1.2-2.4 1.8-4.6 1.8-6.5 0-1 .5-1.3 1.2-1.3.4 0 1 .5 1.5 1.3 1.4 2.4.5 6.4-2 10.9a.9.9 0 0 0 0 .8c2.8 5 3.5 9.5 1.5 11.6l-.9.6c-.8.4-1.3-.2-1.3-1.3 0-1.9-.6-4.1-1.8-6.5a.6.6 0 0 0-1-.2 42 42 0 0 1-2.3 2.6C11.9 29.8 4.7 33 1 31.3c-1.3-.8-1-2.2.2-2.3" fill="#009ED5" mask="url(#d)"/></g><mask id="f" fill="#fff"><use xlink:href="#e"/></mask><path d="M25.9 29c-3.5-.2-9-3.4-14-8.5a41.4 41.4 0 0 1-3.4-4 .9.9 0 0 1 0-1 41.4 41.4 0 0 1 3.4-4 34 34 0 0 1 12.4-8.3s2.2-.6 2.4-1.5c.2-.8-.8-1.3-1-1.4-4-1.2-11 2.2-17.2 8.5l-2.3 2.6a.6.6 0 0 1-1-.2 15 15 0 0 1-1.8-6.5c0-1-.5-1.3-1.2-1.3-.4 0-1 .5-1.5 1.3-1.4 2.4-.6 6.4 2 10.9a.9.9 0 0 1 0 .8C-.1 21.4-1 26 1.2 28c.3.3.5.5.8.6.9.4 1.4-.2 1.4-1.3 0-1.9.6-4.1 1.8-6.5a.6.6 0 0 1 1-.2 42.2 42.2 0 0 0 2.3 2.6C15 29.8 22.3 33 26 31.3c1.4-.8 1-2.2-.1-2.3" fill="#97E4FF" mask="url(#f)"/></g></svg>