<svg width="83" height="20" fill="none" xmlns="http://www.w3.org/2000/svg"><path d="m19 2.5-.6-.4a.5.5 0 0 0-.7.5c0 1.2-.3 2.7-1.1 4.4-.1.2-.5.3-.6 0l-1.5-1.5C10 1 4.8-1 2.8.9c-.3.4 0 .9.4.9 2.5.2 6 2.1 9.2 5.3l2.2 2.4v.7l-2.2 2.4c-3.2 3.2-6.7 5.1-9.2 5.3-.5 0-.7.6-.4.9 2 2 7.2 0 11.7-4.6l1.5-1.5c.1-.2.5-.2.6 0a8.4 8.4 0 0 1 1 4.4c0 .4.4.7.8.5l.7-.4c1.3-1.3.8-4-1-7a.5.5 0 0 1 0-.6c1.8-3 2.3-5.8 1-7Z" fill="#fff"/><path d="M7.4 12.7c-.8-.8-1.5-1.6-2.1-2.5a.5.5 0 0 1 0-.6l2.1-2.4C10.6 4 14.2 2 16.7 1.9c.4 0 .6-.6.3-.9-2-2-7.2 0-11.7 4.5L3.9 7.1c-.2.2-.5.2-.7 0a8.4 8.4 0 0 1-1-4.4c0-.4-.4-.7-.8-.6l-.6.5c-1.3 1.3-.9 4 .9 7v.6c-1.8 3-2.2 5.7-1 7l.7.5c.4.2.8-.1.7-.5 0-1.2.3-2.7 1.1-4.4.2-.2.5-.3.7 0l1.4 1.5c4.5 4.5 9.7 6.5 11.7 4.5.3-.3 0-.8-.3-.8-2.5-.2-6.1-2.1-9.3-5.3Z" fill="#fff"/><path fill-rule="evenodd" clip-rule="evenodd" d="M24.8 3.5v12.7c0 .3.2.5.4.5H29c1.7 0 3-.4 4-1 1-.8 1.4-1.8 1.4-3.2 0-.5 0-.9-.2-1.2a3 3 0 0 0-2.3-1.9 2.8 2.8 0 0 0 1.5-1.2l.3-.9.2-1c0-1-.4-2-1.2-2.5-.8-.5-2-.8-3.5-.8h-4c-.2 0-.4.2-.4.5Zm4.3 11h1.1l.8-.5.5-.7.1-.8c0-.6-.2-1-.6-1.4-.5-.3-1.1-.5-2-.5h-1.2c-.3 0-.5.2-.5.5v3c0 .3.2.5.5.5H29Zm2-7.7V6l-.4-.6a2 2 0 0 0-.8-.3 4 4 0 0 0-1-.1h-1.1c-.3 0-.5.2-.5.4v2.7c0 .3.2.5.5.5h1.1c.4 0 .8 0 1-.2.3 0 .6-.2.8-.4l.4-.6v-.7Z" fill="#fff"/><path d="M36.9 16.2V3.5c0-.3.2-.5.4-.5H39c.3 0 .5.2.5.5V14c0 .3.2.5.4.5h4.9c.2 0 .4.2.4.4v1.3c0 .3-.2.5-.4.5h-7.5a.4.4 0 0 1-.4-.5ZM57.3 11.6c0 1 0 1.7-.3 2.3-.2.7-.6 1.2-1 1.7-.4.4-1 .8-1.6 1-.6.2-1.3.3-2.1.3-.9 0-1.6-.1-2.3-.3-.6-.2-1-.6-1.5-1-.4-.4-.7-1-.8-1.5-.2-.6-.3-1.3-.3-2V3.5c0-.3.2-.5.4-.5h1.7c.3 0 .5.2.5.5v8.4l.1 1.2c0 .4.2.7.4 1l.8.5 1 .2c.5 0 .9 0 1.2-.2.3 0 .5-.3.7-.5.2-.2.3-.5.4-1l.2-1.3V3.5c0-.3.2-.5.4-.5H57c.3 0 .4.2.4.5v8.1ZM60.6 16.2l.1-12.8c0-.2.2-.4.5-.4h7.3c.3 0 .5.3.5.5v1.3c0 .3-.3.4-.5.4h-4.7c-.3 0-.5.2-.5.4v2.5c0 .3.2.5.4.5h4.5c.2 0 .4.2.4.5v1.2c0 .3-.2.5-.4.5l-4.5-.1c-.2 0-.4.2-.4.4v3c0 .2.1.4.4.4h4.7c.2 0 .4.2.4.5v1.3c0 .2-.2.4-.4.4H61a.4.4 0 0 1-.4-.5ZM80 16.7h1.6c.3 0 .5-.4.4-.7L74.3 3.2l-.4-.2h-1.7c-.3 0-.6.4-.4.7l7.7 12.8.4.2Z" fill="#fff"/><path d="M73.9 16.7h-1.7a.4.4 0 0 1-.4-.7l7.7-12.8.4-.2h1.7c.3 0 .5.4.4.7l-7.8 12.8-.3.2Z" fill="#fff"/></svg>