<svg width="133" height="32" viewBox="0 0 133 32" xmlns="http://www.w3.org/2000/svg" xmlns:xlink="http://www.w3.org/1999/xlink">
    <defs>
        <path id="a" d="M.176.003h15.668v22.962H.176z"/>
        <path id="c" d="M.153.096H26.87V31.8H.153z"/>
        <path id="e" d="M0 .096h26.91V31.8H0z"/>
    </defs>
    <g fill="none" fill-rule="evenodd">
        <path d="M47.235 23.463c.683 0 1.285-.087 1.8-.265a3.703 3.703 0 0 0 1.295-.728c.348-.311.612-.68.792-1.1.18-.425.27-.874.27-1.355 0-1-.368-1.78-1.106-2.342-.735-.562-1.862-.845-3.381-.845h-1.931a.733.733 0 0 0-.73.737v5.16c0 .408.327.738.73.738h2.26zm3.41-13.18c0-.434-.071-.829-.21-1.18a2.121 2.121 0 0 0-.67-.897c-.306-.246-.702-.436-1.181-.572-.482-.133-1.066-.202-1.75-.202h-1.86a.733.733 0 0 0-.73.737v4.613c0 .407.327.737.73.737h1.86c.696 0 1.286-.085 1.766-.255.481-.17.875-.404 1.183-.703.308-.3.527-.642.661-1.028.132-.388.2-.805.2-1.25zM40 26.263V4.737c0-.408.326-.738.729-.738h6.61c2.586 0 4.524.459 5.817 1.373 1.293.914 1.939 2.3 1.939 4.154 0 .574-.066 1.132-.2 1.679a5.203 5.203 0 0 1-.618 1.504 4.932 4.932 0 0 1-1.043 1.216c-.417.351-.91.627-1.477.827a5.23 5.23 0 0 1 1.625.554c.515.275.97.633 1.357 1.072.388.44.696.96.922 1.559.225.596.339 1.268.339 2.004 0 2.348-.777 4.11-2.33 5.29C52.115 26.41 49.873 27 46.939 27h-6.21a.733.733 0 0 1-.729-.738zM59 26.262V4.738c0-.408.328-.738.732-.738h2.901c.405 0 .732.33.732.738v17.811c0 .408.328.738.732.738h8.171c.404 0 .732.33.732.738v2.237a.735.735 0 0 1-.732.738H59.732a.735.735 0 0 1-.732-.738M92 18.283c0 1.443-.187 2.707-.564 3.796-.375 1.091-.914 2-1.613 2.725a6.726 6.726 0 0 1-2.563 1.643c-1.008.37-2.14.553-3.395.553-1.412 0-2.621-.183-3.63-.553-1.007-.37-1.827-.9-2.454-1.591-.628-.692-1.082-1.533-1.36-2.526-.282-.99-.421-2.103-.421-3.335V4.725c0-.4.315-.725.704-.725h2.727c.389 0 .704.325.704.725v14.01c0 .76.064 1.434.194 2.023.127.588.35 1.087.671 1.496.32.41.719.716 1.202.924.48.209 1.085.312 1.815.312.682 0 1.26-.09 1.73-.268a2.69 2.69 0 0 0 1.177-.864c.313-.398.549-.909.705-1.53.159-.625.236-1.38.236-2.266V4.725c0-.4.315-.725.704-.725h2.727c.388 0 .704.325.704.725v13.558zM98 26.115l.248-21.39A.733.733 0 0 1 98.99 4l12.287.143a.733.733 0 0 1 .724.741l-.025 2.172a.733.733 0 0 1-.741.724l-7.92-.092a.732.732 0 0 0-.74.725l-.05 4.218a.733.733 0 0 0 .725.741l7.483.087a.733.733 0 0 1 .724.742l-.024 2.085a.733.733 0 0 1-.741.724l-7.484-.087a.733.733 0 0 0-.74.725l-.057 4.88a.733.733 0 0 0 .724.742l7.919.092a.733.733 0 0 1 .724.742l-.025 2.172a.733.733 0 0 1-.741.724l-12.287-.143a.733.733 0 0 1-.724-.742" fill="#009ED5"/>
        <g transform="translate(117 4)">
            <mask id="b" fill="#fff">
                <use xlink:href="#a"/>
            </mask>
            <path d="M12.618 22.965h2.557c.52 0 .84-.624.572-1.113L4.01.359a.657.657 0 0 0-.572-.356H.844c-.52 0-.84.625-.571 1.114l11.774 21.492c.12.221.338.356.571.356" fill="#97E4FF" mask="url(#b)"/>
        </g>
        <path d="M120.294 27h-2.612c-.53 0-.857-.624-.584-1.115l11.986-21.528A.673.673 0 0 1 129.67 4h2.649c.53 0 .857.625.583 1.116l-12.024 21.528a.672.672 0 0 1-.583.356" fill="#97E4FF"/>
        <g transform="translate(5)">
            <mask id="d" fill="#fff">
                <use xlink:href="#c"/>
            </mask>
            <path d="M1.162 29.047c3.47-.294 8.967-3.482 13.844-8.504a41.277 41.277 0 0 0 3.448-4.032.861.861 0 0 0 0-1.026 41.277 41.277 0 0 0-3.448-4.033C10.92 7.244 6.294 4.485 2.77 3.242c0 0-2.23-.628-2.41-1.509-.18-.88.772-1.3 1.05-1.403C5.277-.851 12.27 2.506 18.39 8.809c.818.842 1.583 1.7 2.295 2.564.287.349.82.28 1.016-.13 1.179-2.44 1.821-4.667 1.791-6.52-.015-.998.476-1.37 1.164-1.305.458.043 1.04.45 1.554 1.302 1.386 2.337.528 6.387-2.003 10.837a.896.896 0 0 0 0 .882c2.808 4.937 3.534 9.438 1.449 11.585-.24.246-.517.442-.814.612-.807.336-1.368-.248-1.374-1.384.015-1.842-.602-4.088-1.767-6.5a.602.602 0 0 0-1.016-.13 42.017 42.017 0 0 1-2.295 2.566c-6.456 6.647-13.66 9.91-17.365 8.132-1.348-.797-.997-2.225.138-2.273" fill="#009ED5" mask="url(#d)"/>
        </g>
        <g>
            <mask id="f" fill="#fff">
                <use xlink:href="#e"/>
            </mask>
            <path d="M25.894 29.047c-3.496-.294-9.033-3.482-13.945-8.504a41.388 41.388 0 0 1-3.473-4.032.856.856 0 0 1 0-1.026 41.412 41.412 0 0 1 3.473-4.033c4.117-4.208 8.775-6.967 12.326-8.21 0 0 2.246-.628 2.428-1.509.181-.88-.779-1.3-1.059-1.403C21.75-.851 14.706 2.506 8.541 8.809c-.823.842-1.594 1.7-2.31 2.564a.608.608 0 0 1-1.025-.13c-1.187-2.44-1.834-4.667-1.804-6.52.015-.998-.48-1.37-1.172-1.305-.461.043-1.048.45-1.565 1.302-1.396 2.337-.532 6.387 2.018 10.837a.891.891 0 0 1 0 .882c-2.829 4.937-3.56 9.438-1.46 11.585.241.246.52.442.82.612.812.336 1.378-.248 1.384-1.384-.015-1.842.606-4.088 1.78-6.5a.608.608 0 0 1 1.023-.13 42.184 42.184 0 0 0 2.311 2.566c6.504 6.647 13.76 9.91 17.491 8.132 1.358-.797 1.004-2.225-.138-2.273" fill="#97E4FF" mask="url(#f)"/>
        </g>
    </g>
</svg>
