<svg width="147" height="24" viewBox="0 0 147 24" xmlns="http://www.w3.org/2000/svg">
    <g fill-rule="nonzero" fill="none">
        <path d="M110.574 19.9v-6.115h1.85c1.169 0 2.134-.143 2.898-.43a5.604 5.604 0 0 0 1.994-1.266c.448-.448.799-.99 1.052-1.625.254-.635.38-1.31.38-2.022 0-.91-.172-1.687-.517-2.33a4.477 4.477 0 0 0-1.433-1.592 5.291 5.291 0 0 0-1.806-.782c-.683-.162-1.51-.242-2.48-.242h-4.12V19.9h2.182zm1.487-7.976h-1.487V5.369h1.807c.683 0 1.254.047 1.713.143a3.44 3.44 0 0 1 1.206.485c.397.264.692.605.887 1.024.195.419.292.91.292 1.476 0 .522-.074.977-.22 1.366-.147.39-.382.75-.706 1.08-.36.367-.811.623-1.355.766-.543.143-1.255.215-2.137.215zm9.2 7.976 1.486-4.583h6.269l1.487 4.583h2.303l-5.53-16.404h-2.689l-5.53 16.404h2.203zm7.15-6.445h-5.058l2.523-7.734 2.534 7.734zm11.886 6.445v-7.26l5.542-9.144h-2.314l-4.296 7.238-4.23-7.238h-2.425l5.542 9.375V19.9h2.181z" fill="#163551"/>
        <path d="M22.87 3.052a2.774 2.774 0 0 0-.8-.554.616.616 0 0 0-.867.627c.148 1.427-.321 3.258-1.308 5.24a.454.454 0 0 1-.751.096 30.758 30.758 0 0 0-1.732-1.881C12.034 1.202 5.758-1.241 3.395 1.123l-.01.009a.607.607 0 0 0 .398 1.033c3.002.19 7.27 2.526 11.088 6.343a30.389 30.389 0 0 1 2.59 2.943c.17.22.17.527 0 .747a30.389 30.389 0 0 1-2.59 2.942c-3.817 3.818-8.086 6.154-11.088 6.344a.607.607 0 0 0-.398 1.033l.01.009c2.363 2.364 8.64-.08 14.017-5.457a30.649 30.649 0 0 0 1.732-1.88.454.454 0 0 1 .75.095c.988 1.982 1.457 3.813 1.309 5.24a.617.617 0 0 0 .868.627c.3-.14.568-.324.798-.554 1.567-1.567 1.02-4.853-1.091-8.456a.625.625 0 0 1 0-.633c2.112-3.604 2.658-6.89 1.091-8.456" fill="#009BD2"/>
        <path d="M8.907 15.215c-.96-.96-1.826-1.95-2.588-2.94a.618.618 0 0 1 0-.752c.762-.99 1.628-1.98 2.588-2.94 3.813-3.812 8.075-6.147 11.076-6.342a.613.613 0 0 0 .401-1.043c-2.364-2.364-8.64.079-14.018 5.456A31.063 31.063 0 0 0 4.64 8.53a.46.46 0 0 1-.76-.097C2.898 6.457 2.43 4.633 2.575 3.21c.049-.48-.44-.838-.877-.633-.296.14-.56.322-.789.55C-.657 4.691-.11 7.976 2 11.578a.631.631 0 0 1 0 .64c-2.11 3.602-2.656 6.887-1.09 8.453.228.228.493.41.79.55.435.205.925-.154.876-.633-.145-1.424.323-3.248 1.305-5.223a.46.46 0 0 1 .76-.096 30.964 30.964 0 0 0 1.726 1.874c5.378 5.377 11.654 7.82 14.018 5.457a.612.612 0 0 0-.401-1.044c-3.001-.194-7.263-2.53-11.076-6.342" fill="#97E4FF"/>
        <path d="M34.97 17.487c.491 0 .924-.062 1.296-.189.371-.124.682-.298.932-.518.25-.222.44-.483.57-.783a2.42 2.42 0 0 0 .195-.964c0-.71-.265-1.266-.796-1.667-.53-.4-1.342-.601-2.435-.601H33.34a.525.525 0 0 0-.525.525v3.672c0 .29.235.525.525.525h1.628zm2.454-9.38c0-.309-.05-.59-.15-.84-.1-.25-.261-.463-.483-.637a2.378 2.378 0 0 0-.85-.408 4.82 4.82 0 0 0-1.26-.143h-1.34a.525.525 0 0 0-.525.524v3.282c0 .29.235.525.525.525h1.34c.501 0 .926-.06 1.27-.181.348-.12.632-.288.853-.5.222-.214.38-.457.476-.732.095-.276.144-.572.144-.89M29.76 19.48V4.161c0-.29.235-.525.525-.525h4.76c1.862 0 3.258.327 4.19.978.93.65 1.395 1.636 1.395 2.955 0 .41-.047.806-.144 1.195a3.674 3.674 0 0 1-.444 1.07 3.385 3.385 0 0 1-1.815 1.454c.409.067.798.199 1.17.395.371.196.698.45.977.762.28.314.5.684.664 1.11.162.425.244.902.244 1.426 0 1.671-.56 2.925-1.678 3.765-1.12.838-2.734 1.258-4.847 1.258h-4.472a.525.525 0 0 1-.525-.525M44.228 19.479V4.16c0-.29.235-.525.524-.525h2.082c.29 0 .525.235.525.525v12.676c0 .29.235.525.525.525h5.862c.29 0 .525.234.525.524v1.593c0 .29-.235.525-.525.525h-8.994a.525.525 0 0 1-.524-.525M68.817 13.98c0 1.044-.14 1.96-.42 2.748-.28.79-.681 1.448-1.202 1.973a5.032 5.032 0 0 1-1.91 1.19c-.75.268-1.594.4-2.53.4-1.052 0-1.953-.132-2.704-.4-.751-.267-1.361-.651-1.83-1.152a4.431 4.431 0 0 1-1.013-1.83c-.21-.716-.313-1.522-.313-2.414V4.16c0-.29.235-.525.525-.525h2.031c.29 0 .525.235.525.525v10.145c0 .551.048 1.04.144 1.465a2.6 2.6 0 0 0 .5 1.084c.238.296.536.518.896.67.359.15.809.225 1.353.225.508 0 .938-.065 1.29-.194a2.01 2.01 0 0 0 .876-.626c.233-.288.408-.658.525-1.108.118-.452.176-1 .176-1.64V4.161c0-.29.235-.526.524-.526h2.032c.29 0 .525.235.525.525v9.819zM72.715 19.421l.178-15.316a.525.525 0 0 1 .53-.52l8.806.103c.29.003.522.241.519.531l-.019 1.555a.525.525 0 0 1-.53.519l-5.676-.066a.525.525 0 0 0-.53.518l-.036 3.02a.525.525 0 0 0 .52.531l5.362.063c.29.003.522.24.519.53l-.018 1.494a.525.525 0 0 1-.53.519l-5.363-.063a.525.525 0 0 0-.531.519l-.04 3.495a.525.525 0 0 0 .518.53l5.675.067c.29.003.522.24.519.53l-.019 1.556a.525.525 0 0 1-.53.518l-8.805-.102a.525.525 0 0 1-.52-.53" fill="#009BD2"/>
        <path d="M95.9 20.045h2.012c.408 0 .66-.445.45-.795L89.128 3.89a.525.525 0 0 0-.45-.254h-2.04a.525.525 0 0 0-.45.796l9.262 15.358a.525.525 0 0 0 .45.254" fill="#97E4FF"/>
        <path d="M88.648 20.045h-2.011a.525.525 0 0 1-.45-.795L95.42 3.89a.525.525 0 0 1 .45-.254h2.04c.409 0 .66.446.45.796L89.098 19.79a.525.525 0 0 1-.45.254" fill="#97E4FF"/>
    </g>
</svg>
